<svg id="SvgjsSvg1006" width="314.9937744140625" height="358.9979248046875" xmlns="http://www.w3.org/2000/svg" version="1.1" xmlns:xlink="http://www.w3.org/1999/xlink" xmlns:svgjs="http://svgjs.com/svgjs"><defs id="SvgjsDefs1007"><marker id="SvgjsMarker1028" markerWidth="14" markerHeight="10" refX="10" refY="5" viewBox="0 0 14 10" orient="auto" markerUnits="userSpaceOnUse" stroke-dasharray="0,0"><path id="SvgjsPath1029" d="M0,0 L14,5 L0,10 L0,0" fill="#323232" stroke="#323232" stroke-width="1"></path></marker><marker id="SvgjsMarker1040" markerWidth="14" markerHeight="10" refX="10" refY="5" viewBox="0 0 14 10" orient="auto" markerUnits="userSpaceOnUse" stroke-dasharray="0,0"><path id="SvgjsPath1041" d="M0,0 L14,5 L0,10 L0,0" fill="#323232" stroke="#323232" stroke-width="1"></path></marker></defs><g id="SvgjsG1008" transform="translate(25.0020751953125,25.006195068359375)"><path id="SvgjsPath1009" d="M 0 0L 120 0L 120 75L 0 75Z" stroke="rgba(50,50,50,1)" stroke-width="2" fill-opacity="1" fill="#ffffff"></path><g id="SvgjsG1010"><text id="SvgjsText1011" font-family="微软雅黑" text-anchor="middle" font-size="13px" width="100px" fill="#323232" font-weight="400" align="middle" lineHeight="125%" anchor="middle" family="微软雅黑" size="13px" weight="400" font-style="" opacity="1" y="18.875" transform="rotate(0)"><tspan id="SvgjsTspan1012" dy="16" x="60"><tspan id="SvgjsTspan1013" style="text-decoration:;">查询数据库获得</tspan></tspan><tspan id="SvgjsTspan1014" dy="16" x="60"><tspan id="SvgjsTspan1015" style="text-decoration:;">一个账号信息</tspan></tspan></text></g></g><g id="SvgjsG1016" transform="translate(35.0020751953125,139.00619506835938)"><path id="SvgjsPath1017" d="M 0 0L 100 0L 100 70L 0 70Z" stroke="rgba(50,50,50,1)" stroke-width="2" fill-opacity="1" fill="#ffffff"></path><g id="SvgjsG1018"><text id="SvgjsText1019" font-family="微软雅黑" text-anchor="middle" font-size="13px" width="80px" fill="#323232" font-weight="400" align="middle" lineHeight="125%" anchor="middle" family="微软雅黑" size="13px" weight="400" font-style="" opacity="1" y="7.875" transform="rotate(0)"><tspan id="SvgjsTspan1020" dy="16" x="50"><tspan id="SvgjsTspan1021" style="text-decoration:;">根据账号信息</tspan></tspan><tspan id="SvgjsTspan1022" dy="16" x="50"><tspan id="SvgjsTspan1023" style="text-decoration:;">与密码登陆获</tspan></tspan><tspan id="SvgjsTspan1024" dy="16" x="50"><tspan id="SvgjsTspan1025" style="text-decoration:;">取token</tspan></tspan></text></g></g><g id="SvgjsG1026"><path id="SvgjsPath1027" d="M85.0020751953125 101.00619506835938L85.0020751953125 119.50619506835938L85.0020751953125 119.50619506835938L85.0020751953125 135.40619506835938" stroke="#323232" stroke-width="2" fill="none" marker-end="url(#SvgjsMarker1028)"></path></g><g id="SvgjsG1030" transform="translate(35.0020751953125,264.0061950683594)"><path id="SvgjsPath1031" d="M 0 0L 100 0L 100 70L 0 70Z" stroke="rgba(50,50,50,1)" stroke-width="2" fill-opacity="1" fill="#ffffff"></path><g id="SvgjsG1032"><text id="SvgjsText1033" font-family="微软雅黑" text-anchor="middle" font-size="13px" width="80px" fill="#323232" font-weight="400" align="middle" lineHeight="125%" anchor="middle" family="微软雅黑" size="13px" weight="400" font-style="" opacity="1" y="16.375" transform="rotate(0)"><tspan id="SvgjsTspan1034" dy="16" x="50"><tspan id="SvgjsTspan1035" style="text-decoration:;">携带token进</tspan></tspan><tspan id="SvgjsTspan1036" dy="16" x="50"><tspan id="SvgjsTspan1037" style="text-decoration:;">行下单</tspan></tspan></text></g></g><g id="SvgjsG1038"><path id="SvgjsPath1039" d="M85.0020751953125 210.00619506835938L85.0020751953125 236.50619506835938L85.0020751953125 236.50619506835938L85.0020751953125 260.40619506835935" stroke="#323232" stroke-width="2" fill="none" marker-end="url(#SvgjsMarker1040)"></path></g><g id="SvgjsG1042" transform="translate(172.0020751953125,59.006195068359375)"><path id="SvgjsPath1043" d="M 0 246Q 9 246 9 237L 9 132Q 9 123 22 123Q 9 123 9 114L 9 9Q 9 0 0 0" stroke="rgba(50,50,50,1)" stroke-width="2" fill="none"></path><path id="SvgjsPath1044" d="M 0 0L 118 0L 118 246L 0 246Z" stroke="none" fill="none"></path><g id="SvgjsG1045"><text id="SvgjsText1046" font-family="微软雅黑" text-anchor="start" font-size="13px" width="91px" fill="#323232" font-weight="400" align="middle" lineHeight="125%" anchor="start" family="微软雅黑" size="13px" weight="400" font-style="" opacity="1" y="112.375" transform="rotate(0)"><tspan id="SvgjsTspan1047" dy="16" x="27"><tspan id="SvgjsTspan1048" style="text-decoration:;">总时长</tspan></tspan></text></g></g></svg>