<svg id="SvgjsSvg1006" width="872.0888214111328" height="776.4111633300781" xmlns="http://www.w3.org/2000/svg" version="1.1" xmlns:xlink="http://www.w3.org/1999/xlink" xmlns:svgjs="http://svgjs.com/svgjs"><defs id="SvgjsDefs1007"><marker id="SvgjsMarker1098" markerWidth="14" markerHeight="10" refX="10" refY="5" viewBox="0 0 14 10" orient="auto" markerUnits="userSpaceOnUse" stroke-dasharray="0,0"><path id="SvgjsPath1099" d="M0,0 L14,5 L0,10 L0,0" fill="#323232" stroke="#323232" stroke-width="1"></path></marker><marker id="SvgjsMarker1102" markerWidth="14" markerHeight="10" refX="10" refY="5" viewBox="0 0 14 10" orient="auto" markerUnits="userSpaceOnUse" stroke-dasharray="0,0"><path id="SvgjsPath1103" d="M0,0 L14,5 L0,10 L0,0" fill="#323232" stroke="#323232" stroke-width="1"></path></marker><marker id="SvgjsMarker1106" markerWidth="14" markerHeight="10" refX="10" refY="5" viewBox="0 0 14 10" orient="auto" markerUnits="userSpaceOnUse" stroke-dasharray="0,0"><path id="SvgjsPath1107" d="M0,0 L14,5 L0,10 L0,0" fill="#323232" stroke="#323232" stroke-width="1"></path></marker><marker id="SvgjsMarker1128" markerWidth="14" markerHeight="10" refX="10" refY="5" viewBox="0 0 14 10" orient="auto" markerUnits="userSpaceOnUse" stroke-dasharray="0,0"><path id="SvgjsPath1129" d="M0,0 L14,5 L0,10 L0,0" fill="#323232" stroke="#323232" stroke-width="1"></path></marker><marker id="SvgjsMarker1132" markerWidth="14" markerHeight="10" refX="10" refY="5" viewBox="0 0 14 10" orient="auto" markerUnits="userSpaceOnUse" stroke-dasharray="0,0"><path id="SvgjsPath1133" d="M0,0 L14,5 L0,10 L0,0" fill="#323232" stroke="#323232" stroke-width="1"></path></marker><marker id="SvgjsMarker1136" markerWidth="14" markerHeight="10" refX="10" refY="5" viewBox="0 0 14 10" orient="auto" markerUnits="userSpaceOnUse" stroke-dasharray="0,0"><path id="SvgjsPath1137" d="M0,0 L14,5 L0,10 L0,0" fill="#323232" stroke="#323232" stroke-width="1"></path></marker><marker id="SvgjsMarker1140" markerWidth="14" markerHeight="10" refX="10" refY="5" viewBox="0 0 14 10" orient="auto" markerUnits="userSpaceOnUse" stroke-dasharray="0,0"><path id="SvgjsPath1141" d="M0,0 L14,5 L0,10 L0,0" fill="#323232" stroke="#323232" stroke-width="1"></path></marker><marker id="SvgjsMarker1148" markerWidth="14" markerHeight="10" refX="10" refY="5" viewBox="0 0 14 10" orient="auto" markerUnits="userSpaceOnUse" stroke-dasharray="0,0"><path id="SvgjsPath1149" d="M0,0 L14,5 L0,10 L0,0" fill="#323232" stroke="#323232" stroke-width="1"></path></marker><marker id="SvgjsMarker1156" markerWidth="14" markerHeight="10" refX="10" refY="5" viewBox="0 0 14 10" orient="auto" markerUnits="userSpaceOnUse" stroke-dasharray="0,0"><path id="SvgjsPath1157" d="M0,0 L14,5 L0,10 L0,0" fill="#323232" stroke="#323232" stroke-width="1"></path></marker></defs><g id="SvgjsG1008" transform="translate(249.700853483588,674.4153564188077)"><path id="SvgjsPath1009" d="M 0 0L 597.3953748507371 0L 597.3953748507371 76.41521380213949L 0 76.41521380213949Z" stroke="rgba(50,50,50,1)" stroke-width="2" fill-opacity="1" fill="#ffffff"></path><g id="SvgjsG1010"><text id="SvgjsText1011" font-family="微软雅黑" text-anchor="middle" font-size="13px" width="578px" fill="#323232" font-weight="700" align="middle" lineHeight="125%" anchor="middle" family="微软雅黑" size="13px" weight="700" font-style="" opacity="1" y="27.582606901069745" transform="rotate(0)"></text></g></g><g id="SvgjsG1012" transform="translate(688.0962283343251,521.6487407684326)"><path id="SvgjsPath1013" d="M 0 0L 159 0L 159 117L 0 117Z" stroke="rgba(50,50,50,1)" stroke-width="2" fill-opacity="1" fill="#ffffff"></path><g id="SvgjsG1014"><text id="SvgjsText1015" font-family="微软雅黑" text-anchor="middle" font-size="13px" width="139px" fill="#323232" font-weight="700" align="middle" lineHeight="125%" anchor="middle" family="微软雅黑" size="13px" weight="700" font-style="" opacity="1" y="47.875" transform="rotate(0)"><tspan id="SvgjsTspan1016" dy="16" x="79.5"><tspan id="SvgjsTspan1017" style="text-decoration:;"> </tspan></tspan></text></g></g><g id="SvgjsG1018" transform="translate(228.96900939941406,667.8305702209473)"><path id="SvgjsPath1019" d="M 0 0L 108.7821623400432 0L 108.7821623400432 29.754597830534117L 0 29.754597830534117Z" stroke="none" fill="none"></path><g id="SvgjsG1020"><text id="SvgjsText1021" font-family="微软雅黑" text-anchor="middle" font-size="13px" width="109px" fill="#323232" font-weight="700" align="middle" lineHeight="125%" anchor="middle" family="微软雅黑" size="13px" weight="700" font-style="" opacity="1" y="4.252298915267058" transform="rotate(0)"><tspan id="SvgjsTspan1022" dy="16" x="54.5"><tspan id="SvgjsTspan1023" style="text-decoration:;">database</tspan></tspan></text></g></g><g id="SvgjsG1024" transform="translate(710.4690093994141,515.7396554946899)"><path id="SvgjsPath1025" d="M 0 0L 120 0L 120 40L 0 40Z" stroke="none" fill="none"></path><g id="SvgjsG1026"><text id="SvgjsText1027" font-family="微软雅黑" text-anchor="middle" font-size="13px" width="120px" fill="#323232" font-weight="700" align="middle" lineHeight="125%" anchor="middle" family="微软雅黑" size="13px" weight="700" font-style="" opacity="1" y="9.375" transform="rotate(0)"><tspan id="SvgjsTspan1028" dy="16" x="60"><tspan id="SvgjsTspan1029" style="text-decoration:;">product_srv</tspan></tspan></text></g></g><g id="SvgjsG1030" transform="translate(713.4690093994141,545.7396554946899)"><path id="SvgjsPath1031" d="M 0 0L 120 0L 120 40L 0 40Z" stroke="none" fill="none"></path><g id="SvgjsG1032"><text id="SvgjsText1033" font-family="微软雅黑" text-anchor="middle" font-size="13px" width="120px" fill="#323232" font-weight="400" align="middle" lineHeight="125%" anchor="middle" family="微软雅黑" size="13px" weight="400" font-style="" opacity="1" y="9.375" transform="rotate(0)"><tspan id="SvgjsTspan1034" dy="16" x="60"><tspan id="SvgjsTspan1035" style="text-decoration:;">产品与活动管理</tspan></tspan></text></g></g><g id="SvgjsG1036" transform="translate(455.78483780178067,521.6487407684326)"><path id="SvgjsPath1037" d="M 0 0L 159 0L 159 117L 0 117Z" stroke="rgba(50,50,50,1)" stroke-width="2" fill-opacity="1" fill="#ffffff"></path><g id="SvgjsG1038"><text id="SvgjsText1039" font-family="微软雅黑" text-anchor="middle" font-size="13px" width="139px" fill="#323232" font-weight="700" align="middle" lineHeight="125%" anchor="middle" family="微软雅黑" size="13px" weight="700" font-style="" opacity="1" y="47.875" transform="rotate(0)"><tspan id="SvgjsTspan1040" dy="16" x="79.5"><tspan id="SvgjsTspan1041" style="text-decoration:;"> </tspan></tspan></text></g></g><g id="SvgjsG1042" transform="translate(481.34622833432513,511.0123872756958)"><path id="SvgjsPath1043" d="M 0 0L 120 0L 120 40L 0 40Z" stroke="none" fill="none"></path><g id="SvgjsG1044"><text id="SvgjsText1045" font-family="微软雅黑" text-anchor="middle" font-size="13px" width="120px" fill="#323232" font-weight="700" align="middle" lineHeight="125%" anchor="middle" family="微软雅黑" size="13px" weight="700" font-style="" opacity="1" y="9.375" transform="rotate(0)"><tspan id="SvgjsTspan1046" dy="16" x="60"><tspan id="SvgjsTspan1047" style="text-decoration:;">user_srv</tspan></tspan></text></g></g><g id="SvgjsG1048" transform="translate(484.34622833432513,541.0123872756958)"><path id="SvgjsPath1049" d="M 0 0L 120 0L 120 40L 0 40Z" stroke="none" fill="none"></path><g id="SvgjsG1050"><text id="SvgjsText1051" font-family="微软雅黑" text-anchor="middle" font-size="13px" width="120px" fill="#323232" font-weight="400" align="middle" lineHeight="125%" anchor="middle" family="微软雅黑" size="13px" weight="400" font-style="" opacity="1" y="9.375" transform="rotate(0)"><tspan id="SvgjsTspan1052" dy="16" x="60"><tspan id="SvgjsTspan1053" style="text-decoration:;">用户与管理员登陆</tspan></tspan></text></g></g><g id="SvgjsG1054" transform="translate(252.21900939941406,521.6487407684326)"><path id="SvgjsPath1055" d="M 0 0L 159 0L 159 117L 0 117Z" stroke="rgba(50,50,50,1)" stroke-width="2" fill-opacity="1" fill="#ffffff"></path><g id="SvgjsG1056"><text id="SvgjsText1057" font-family="微软雅黑" text-anchor="middle" font-size="13px" width="139px" fill="#323232" font-weight="700" align="middle" lineHeight="125%" anchor="middle" family="微软雅黑" size="13px" weight="700" font-style="" opacity="1" y="47.875" transform="rotate(0)"><tspan id="SvgjsTspan1058" dy="16" x="79.5"><tspan id="SvgjsTspan1059" style="text-decoration:;"> </tspan></tspan></text></g></g><g id="SvgjsG1060" transform="translate(271.71900939941406,515.7396554946899)"><path id="SvgjsPath1061" d="M 0 0L 120 0L 120 40L 0 40Z" stroke="none" fill="none"></path><g id="SvgjsG1062"><text id="SvgjsText1063" font-family="微软雅黑" text-anchor="middle" font-size="13px" width="120px" fill="#323232" font-weight="700" align="middle" lineHeight="125%" anchor="middle" family="微软雅黑" size="13px" weight="700" font-style="" opacity="1" y="9.375" transform="rotate(0)"><tspan id="SvgjsTspan1064" dy="16" x="60"><tspan id="SvgjsTspan1065" style="text-decoration:;">seckill_srv</tspan></tspan></text></g></g><g id="SvgjsG1066" transform="translate(269.46900939941406,544.5578384399414)"><path id="SvgjsPath1067" d="M 0 0L 120 0L 120 40L 0 40Z" stroke="none" fill="none"></path><g id="SvgjsG1068"><text id="SvgjsText1069" font-family="微软雅黑" text-anchor="middle" font-size="13px" width="120px" fill="#323232" font-weight="400" align="middle" lineHeight="125%" anchor="middle" family="微软雅黑" size="13px" weight="400" font-style="" opacity="1" y="9.375" transform="rotate(0)"><tspan id="SvgjsTspan1070" dy="16" x="60"><tspan id="SvgjsTspan1071" style="text-decoration:;">秒杀服务与订单管理</tspan></tspan></text></g></g><g id="SvgjsG1072" transform="translate(249.70085348358816,396.97107696533203)"><path id="SvgjsPath1073" d="M 0 0L 597.395374850737 0L 597.395374850737 69.52537536621094L 0 69.52537536621094Z" stroke="rgba(50,50,50,1)" stroke-width="2" fill-opacity="1" fill="#ffffff"></path><g id="SvgjsG1074"><text id="SvgjsText1075" font-family="微软雅黑" text-anchor="middle" font-size="13px" width="578px" fill="#323232" font-weight="700" align="middle" lineHeight="125%" anchor="middle" family="微软雅黑" size="13px" weight="700" font-style="" opacity="1" y="24.13768768310547" transform="rotate(0)"><tspan id="SvgjsTspan1076" dy="16" x="299"><tspan id="SvgjsTspan1077" style="text-decoration:;">Consul</tspan></tspan></text></g></g><g id="SvgjsG1078" transform="translate(53.09179046450298,396.7337646484375)"><path id="SvgjsPath1079" d="M 0 0L 159 0L 159 70L 0 70Z" stroke="rgba(50,50,50,1)" stroke-width="2" fill-opacity="1" fill="#ffffff"></path><g id="SvgjsG1080"><text id="SvgjsText1081" font-family="微软雅黑" text-anchor="middle" font-size="13px" width="139px" fill="#323232" font-weight="700" align="middle" lineHeight="125%" anchor="middle" family="微软雅黑" size="13px" weight="700" font-style="" opacity="1" y="24.375" transform="rotate(0)"><tspan id="SvgjsTspan1082" dy="16" x="79.5"><tspan id="SvgjsTspan1083" style="text-decoration:;">rabbitmq</tspan></tspan></text></g></g><g id="SvgjsG1084" transform="matrix(6.123233995736766e-17,1,-1,6.123233995736766e-17,532.0429348014513,264.28528175128304)"><path id="SvgjsPath1085" d="M 0 38L 38 0L 38 25.080000000000002L 95.94304733727768 25.080000000000002L 95.94304733727768 0L 133.94304733727768 38L 95.94304733727768 76L 95.94304733727768 50.92L 38 50.92L 38 76L 0 38Z" stroke="rgba(50,50,50,1)" stroke-width="2" fill-opacity="1" fill="#ffffff"></path><g id="SvgjsG1086"><text id="SvgjsText1087" font-family="微软雅黑" text-anchor="middle" font-size="13px" width="134px" fill="#323232" font-weight="400" align="middle" lineHeight="125%" anchor="middle" family="微软雅黑" size="13px" weight="400" font-style="" opacity="1" y="27.375000000000004" transform="rotate(0)"></text></g></g><g id="SvgjsG1088" transform="translate(541.203073412324,303.356022971017)"><path id="SvgjsPath1089" d="M 0 0L 244.31139053254446 0L 244.31139053254446 47.95038414001465L 0 47.95038414001465Z" stroke="none" fill="none"></path><g id="SvgjsG1090"><text id="SvgjsText1091" font-family="微软雅黑" text-anchor="start" font-size="13px" width="245px" fill="#323232" font-weight="400" align="middle" lineHeight="125%" anchor="start" family="微软雅黑" size="13px" weight="400" font-style="" opacity="1" y="5.350192070007324" transform="rotate(0)"><tspan id="SvgjsTspan1092" dy="16" x="0"><tspan id="SvgjsTspan1093" style="text-decoration:;">用户注册登陆与查看活动、查询订单</tspan></tspan><tspan id="SvgjsTspan1094" dy="16" x="0"><tspan id="SvgjsTspan1095" style="text-decoration:;">管理员登陆与管理用户、产品与活动</tspan></tspan></text></g></g><g id="SvgjsG1096"><path id="SvgjsPath1097" d="M767.5962283343251 673.836290212778L767.5962283343251 656.7425154906052L767.5962283343251 656.7425154906052L767.5962283343251 642.2487407684326" stroke="#323232" stroke-width="2" fill="none" marker-end="url(#SvgjsMarker1098)"></path></g><g id="SvgjsG1100"><path id="SvgjsPath1101" d="M535.2848378017807 674.8362902127778L534.5193052574025 656.7425154906052L535.2848378017807 656.7425154906052L535.2848378017807 642.2487407684326" stroke="#323232" stroke-width="2" fill="none" marker-end="url(#SvgjsMarker1102)"></path></g><g id="SvgjsG1104"><path id="SvgjsPath1105" d="M331.71900939941406 674.0670594435472L330.67315141124817 656.35790010599L331.71900939941406 656.35790010599L331.71900939941406 642.2487407684326" stroke="#323232" stroke-width="2" fill="none" marker-end="url(#SvgjsMarker1106)"></path></g><g id="SvgjsG1108" transform="translate(53.09179046450298,545.1487407684326)"><path id="SvgjsPath1109" d="M 0 0L 100 0L 100 70L 0 70Z" stroke="rgba(50,50,50,1)" stroke-width="2" fill-opacity="1" fill="#ffffff"></path><g id="SvgjsG1110"><text id="SvgjsText1111" font-family="微软雅黑" text-anchor="middle" font-size="13px" width="80px" fill="#323232" font-weight="700" align="middle" lineHeight="125%" anchor="middle" family="微软雅黑" size="13px" weight="700" font-style="" opacity="1" y="24.375" transform="rotate(0)"><tspan id="SvgjsTspan1112" dy="16" x="50"><tspan id="SvgjsTspan1113" style="text-decoration:;">redis</tspan></tspan></text></g></g><g id="SvgjsG1114" transform="translate(164.07615225655724,305.69835662841797)"><path id="SvgjsPath1115" d="M 0 0L 120 0L 120 40L 0 40Z" stroke="none" fill="none"></path><g id="SvgjsG1116"><text id="SvgjsText1117" font-family="微软雅黑" text-anchor="middle" font-size="13px" width="120px" fill="#323232" font-weight="400" align="middle" lineHeight="125%" anchor="middle" family="微软雅黑" size="13px" weight="400" font-style="" opacity="1" y="9.375" transform="rotate(0)"><tspan id="SvgjsTspan1118" dy="16" x="60"><tspan id="SvgjsTspan1119" style="text-decoration:;">用户下订单</tspan></tspan></text></g></g><g id="SvgjsG1120" transform="translate(432.64168287977986,309.98407091413225)"><path id="SvgjsPath1121" d="M 0 0L 120 0L 120 40L 0 40Z" stroke="none" fill="none"></path><g id="SvgjsG1122"><text id="SvgjsText1123" font-family="微软雅黑" text-anchor="middle" font-size="13px" width="120px" fill="#323232" font-weight="700" align="middle" lineHeight="125%" anchor="middle" family="微软雅黑" size="13px" weight="700" font-style="" opacity="1" y="9.375" transform="rotate(0)"><tspan id="SvgjsTspan1124" dy="16" x="60"><tspan id="SvgjsTspan1125" style="text-decoration:;">gRPC调用服务</tspan></tspan></text></g></g><g id="SvgjsG1126"><path id="SvgjsPath1127" d="M795.0117034912115 638.4834620157878L795.0117034912115 656.1501286824545L795.0117034912115 656.1501286824545L795.0117034912115 671.2167953491211" stroke="#323232" stroke-width="2" fill="none" marker-end="url(#SvgjsMarker1128)"></path></g><g id="SvgjsG1130"><path id="SvgjsPath1131" d="M555.6783701578787 637.1501286824544L555.6783701578787 655.1501286824544L555.6783701578787 655.1501286824544L555.6783701578787 674.1501286824544" stroke="#323232" stroke-width="2" fill="none" marker-end="url(#SvgjsMarker1132)"></path></g><g id="SvgjsG1134"><path id="SvgjsPath1135" d="M350.824376424154 637.4862085978191L350.824376424154 655.4862085978191L350.824376424154 655.4862085978191L350.824376424154 674.4862085978191" stroke="#323232" stroke-width="2" fill="none" marker-end="url(#SvgjsMarker1136)"></path></g><g id="SvgjsG1138"><path id="SvgjsPath1139" d="M132.591790464503 467.7337646484375L132.591790464503 530.7821666172572L249.3471806117467 530.7821666172572" stroke="#323232" stroke-width="2" fill="none" marker-end="url(#SvgjsMarker1140)"></path><rect id="SvgjsRect1142" width="52" height="16" x="133.445284553715" y="522.7821666172572" fill="#ffffff"></rect><text id="SvgjsText1143" font-family="微软雅黑" text-anchor="middle" font-size="13px" width="52px" fill="#323232" font-weight="400" align="top" lineHeight="16px" anchor="middle" family="微软雅黑" size="13px" weight="400" font-style="" opacity="1" y="520.1571666172572" transform="rotate(0)"><tspan id="SvgjsTspan1144" dy="16" x="159.445284553715"><tspan id="SvgjsTspan1145" style="text-decoration:;">请求订单</tspan></tspan></text></g><g id="SvgjsG1146"><path id="SvgjsPath1147" d="M251.21900939941406 580.1487407684326L202.65539993195853 580.1487407684326L202.65539993195853 580.1487407684326L156.69179046450296 580.1487407684326" stroke="#323232" stroke-width="2" fill="none" marker-end="url(#SvgjsMarker1148)"></path><rect id="SvgjsRect1150" width="52" height="16" x="177.9553999319585" y="572.1487407684326" fill="#ffffff"></rect><text id="SvgjsText1151" font-family="微软雅黑" text-anchor="middle" font-size="13px" width="52px" fill="#323232" font-weight="400" align="top" lineHeight="16px" anchor="middle" family="微软雅黑" size="13px" weight="400" font-style="" opacity="1" y="569.5237407684326" transform="rotate(0)"><tspan id="SvgjsTspan1152" dy="16" x="203.9553999319585"><tspan id="SvgjsTspan1153" style="text-decoration:;">订单结果</tspan></tspan></text></g><g id="SvgjsG1154"><path id="SvgjsPath1155" d="M153.9938049316406 601.1694183349609L202.67260683499848 601.1694183349609L202.67260683499848 601.1694183349609L248.75140873835636 601.1694183349609" stroke="#323232" stroke-width="2" fill="none" marker-end="url(#SvgjsMarker1156)"></path><rect id="SvgjsRect1158" width="52" height="16" x="175.3726068349985" y="593.1694183349609" fill="#ffffff"></rect><text id="SvgjsText1159" font-family="微软雅黑" text-anchor="middle" font-size="13px" width="52px" fill="#323232" font-weight="400" align="top" lineHeight="16px" anchor="middle" family="微软雅黑" size="13px" weight="400" font-style="" opacity="1" y="590.5444183349609" transform="rotate(0)"><tspan id="SvgjsTspan1160" dy="16" x="201.3726068349985"><tspan id="SvgjsTspan1161" style="text-decoration:;">请求查询</tspan></tspan></text></g><g id="SvgjsG1162" transform="matrix(6.123233995736766e-17,1,-1,6.123233995736766e-17,191.36022606121696,263.0125461555799)"><path id="SvgjsPath1163" d="M 0 38L 38 0L 38 25.080000000000002L 95.94304733727768 25.080000000000002L 95.94304733727768 0L 133.94304733727768 38L 95.94304733727768 76L 95.94304733727768 50.92L 38 50.92L 38 76L 0 38Z" stroke="rgba(50,50,50,1)" stroke-width="2" fill-opacity="1" fill="#ffffff"></path><g id="SvgjsG1164"><text id="SvgjsText1165" font-family="微软雅黑" text-anchor="middle" font-size="13px" width="134px" fill="#323232" font-weight="400" align="middle" lineHeight="125%" anchor="middle" family="微软雅黑" size="13px" weight="400" font-style="" opacity="1" y="27.375000000000004" transform="rotate(0)"></text></g></g><g id="SvgjsG1166" transform="translate(53.09179046450298,182.2210922241211)"><path id="SvgjsPath1167" d="M 0 0L 791.4862819539962 0L 791.4862819539962 78.56107439313617L 0 78.56107439313617Z" stroke="rgba(50,50,50,1)" stroke-width="2" fill-opacity="1" fill="#ffffff"></path><g id="SvgjsG1168"><text id="SvgjsText1169" font-family="微软雅黑" text-anchor="middle" font-size="13px" width="772px" fill="#323232" font-weight="700" align="middle" lineHeight="125%" anchor="middle" family="微软雅黑" size="13px" weight="700" font-style="" opacity="1" y="28.655537196568083" transform="rotate(0)"><tspan id="SvgjsTspan1170" dy="16" x="396"><tspan id="SvgjsTspan1171" style="text-decoration:;">gin</tspan></tspan></text></g></g><g id="SvgjsG1172" transform="translate(92.09179046450299,309.98407091413225)"><path id="SvgjsPath1173" d="M 0 0L 120 0L 120 40L 0 40Z" stroke="none" fill="none"></path><g id="SvgjsG1174"><text id="SvgjsText1175" font-family="微软雅黑" text-anchor="middle" font-size="13px" width="120px" fill="#323232" font-weight="700" align="middle" lineHeight="125%" anchor="middle" family="微软雅黑" size="13px" weight="700" font-style="" opacity="1" y="9.375" transform="rotate(0)"><tspan id="SvgjsTspan1176" dy="16" x="60"><tspan id="SvgjsTspan1177" style="text-decoration:;">mq</tspan></tspan></text></g></g><g id="SvgjsG1178" transform="translate(411.2190093994142,93.38842773437503)"><path id="SvgjsPath1179" d="M 30 0L 60 30L 40.2 30L 40.2 60L 60 60L 30 90L 0 60L 19.8 60L 19.8 30L 0 30L 30 0Z" stroke="rgba(50,50,50,1)" stroke-width="2" fill-opacity="1" fill="#ffffff"></path><g id="SvgjsG1180"><text id="SvgjsText1181" font-family="微软雅黑" text-anchor="middle" font-size="13px" width="84px" fill="#323232" font-weight="400" align="middle" lineHeight="125%" anchor="middle" family="微软雅黑" size="13px" weight="400" font-style="" opacity="1" y="34.375" transform="rotate(0)"></text></g></g><g id="SvgjsG1182" transform="translate(332.6416828797798,24.995570591517833)"><path id="SvgjsPath1183" d="M 0 0L 220 0L 220 66.25L 0 66.25Z" stroke="rgba(50,50,50,1)" stroke-width="2" fill-opacity="1" fill="#ffffff"></path><g id="SvgjsG1184"><text id="SvgjsText1185" font-family="微软雅黑" text-anchor="middle" font-size="13px" width="200px" fill="#323232" font-weight="400" align="middle" lineHeight="125%" anchor="middle" family="微软雅黑" size="13px" weight="400" font-style="" opacity="1" y="22.5" transform="rotate(0)"><tspan id="SvgjsTspan1186" dy="16" x="110"><tspan id="SvgjsTspan1187" style="text-decoration:;">前端界面</tspan></tspan></text></g></g><g id="SvgjsG1188" transform="translate(25.010323854190453,183.38842773437503)"><path id="SvgjsPath1189" d="M 0 0L 120 0L 120 40L 0 40Z" stroke="none" fill="none"></path><g id="SvgjsG1190"><text id="SvgjsText1191" font-family="微软雅黑" text-anchor="middle" font-size="13px" width="120px" fill="#323232" font-weight="400" align="middle" lineHeight="125%" anchor="middle" family="微软雅黑" size="13px" weight="400" font-style="" opacity="1" y="9.375" transform="rotate(0)"><tspan id="SvgjsTspan1192" dy="16" x="60"><tspan id="SvgjsTspan1193" style="text-decoration:;">web</tspan></tspan></text></g></g><g id="SvgjsG1194" transform="translate(747.288686578924,466.7337646484375)"><path id="SvgjsPath1195" d="M 16.790281518713357 0L 33.580563037426714 16.790281518713357L 22.4989772350759 16.790281518713357L 22.4989772350759 38.12469460128176L 33.580563037426714 38.12469460128176L 16.790281518713357 54.91497611999512L 0 38.12469460128176L 11.081585802350816 38.12469460128176L 11.081585802350816 16.790281518713357L 0 16.790281518713357L 16.790281518713357 0Z" stroke="rgba(50,50,50,1)" stroke-width="2" fill-opacity="1" fill="#ffffff"></path><g id="SvgjsG1196"><text id="SvgjsText1197" font-family="微软雅黑" text-anchor="middle" font-size="13px" width="48px" fill="#323232" font-weight="700" align="middle" lineHeight="125%" anchor="middle" family="微软雅黑" size="13px" weight="700" font-style="" opacity="1" y="16.83248805999756" transform="rotate(0)"><tspan id="SvgjsTspan1198" dy="16" x="17.283887392514657"><tspan id="SvgjsTspan1199" style="text-decoration:;">gRPC</tspan></tspan></text></g></g><g id="SvgjsG1200" transform="translate(527.5559468156116,466.7337646484375)"><path id="SvgjsPath1201" d="M 16.790281518713357 0L 33.580563037426714 16.790281518713357L 22.4989772350759 16.790281518713357L 22.4989772350759 38.12469460128176L 33.580563037426714 38.12469460128176L 16.790281518713357 54.91497611999512L 0 38.12469460128176L 11.081585802350816 38.12469460128176L 11.081585802350816 16.790281518713357L 0 16.790281518713357L 16.790281518713357 0Z" stroke="rgba(50,50,50,1)" stroke-width="2" fill-opacity="1" fill="#ffffff"></path><g id="SvgjsG1202"><text id="SvgjsText1203" font-family="微软雅黑" text-anchor="middle" font-size="13px" width="48px" fill="#323232" font-weight="700" align="middle" lineHeight="125%" anchor="middle" family="微软雅黑" size="13px" weight="700" font-style="" opacity="1" y="16.83248805999756" transform="rotate(0)"><tspan id="SvgjsTspan1204" dy="16" x="17.283887392514657"><tspan id="SvgjsTspan1205" style="text-decoration:;">gRPC</tspan></tspan></text></g></g><g id="SvgjsG1206" transform="translate(319.3454941219197,466.7337646484375)"><path id="SvgjsPath1207" d="M 16.790281518713357 0L 33.580563037426714 16.790281518713357L 22.4989772350759 16.790281518713357L 22.4989772350759 38.12469460128176L 33.580563037426714 38.12469460128176L 16.790281518713357 54.91497611999512L 0 38.12469460128176L 11.081585802350816 38.12469460128176L 11.081585802350816 16.790281518713357L 0 16.790281518713357L 16.790281518713357 0Z" stroke="rgba(50,50,50,1)" stroke-width="2" fill-opacity="1" fill="#ffffff"></path><g id="SvgjsG1208"><text id="SvgjsText1209" font-family="微软雅黑" text-anchor="middle" font-size="13px" width="48px" fill="#323232" font-weight="700" align="middle" lineHeight="125%" anchor="middle" family="微软雅黑" size="13px" weight="700" font-style="" opacity="1" y="16.83248805999756" transform="rotate(0)"><tspan id="SvgjsTspan1210" dy="16" x="17.283887392514657"><tspan id="SvgjsTspan1211" style="text-decoration:;">gRPC</tspan></tspan></text></g></g></svg>